<mxfile host="drawio-plugin" modified="2023-02-07T06:53:33.918Z" agent="5.0 (Windows NT 6.2; Win64; x64) AppleWebKit/537.36 (KHTML, like Gecko) Chrome/104.0.5112.102 Safari/537.36" etag="1aTxBgRkTTUPtJCrA1ey" version="20.5.3" type="embed"><diagram id="C5RBs43oDa-KdzZeNtuy" name="Page-1"><mxGraphModel dx="748" dy="636" grid="1" gridSize="10" guides="1" tooltips="1" connect="1" arrows="1" fold="1" page="1" pageScale="1" pageWidth="1169" pageHeight="827" math="0" shadow="0"><root><mxCell id="WIyWlLk6GJQsqaUBKTNV-0"/><mxCell id="WIyWlLk6GJQsqaUBKTNV-1" parent="WIyWlLk6GJQsqaUBKTNV-0"/><mxCell id="opeQJosCikN5GaiZmEWk-6" style="edgeStyle=orthogonalEdgeStyle;rounded=0;orthogonalLoop=1;jettySize=auto;html=1;entryX=0;entryY=0.5;entryDx=0;entryDy=0;noEdgeStyle=1;orthogonal=1;" parent="WIyWlLk6GJQsqaUBKTNV-1" source="WIyWlLk6GJQsqaUBKTNV-3" target="opeQJosCikN5GaiZmEWk-4" edge="1"><mxGeometry relative="1" as="geometry"><Array as="points"><mxPoint x="162" y="117.5"/><mxPoint x="238" y="90"/></Array></mxGeometry></mxCell><mxCell id="WIyWlLk6GJQsqaUBKTNV-3" value="build" style="rounded=1;whiteSpace=wrap;html=1;fontSize=12;glass=0;strokeWidth=1;shadow=0;fillColor=#bac8d3;strokeColor=#23445d;" parent="WIyWlLk6GJQsqaUBKTNV-1" vertex="1"><mxGeometry x="30" y="105" width="120" height="40" as="geometry"/></mxCell><mxCell id="WIyWlLk6GJQsqaUBKTNV-4" value="Yes" style="rounded=0;html=1;jettySize=auto;orthogonalLoop=1;fontSize=11;endArrow=block;endFill=0;endSize=8;strokeWidth=1;shadow=0;labelBackgroundColor=none;edgeStyle=orthogonalEdgeStyle;" parent="WIyWlLk6GJQsqaUBKTNV-1" edge="1"><mxGeometry y="20" relative="1" as="geometry"><mxPoint as="offset"/><mxPoint x="220" y="250" as="sourcePoint"/></mxGeometry></mxCell><mxCell id="opeQJosCikN5GaiZmEWk-13" style="edgeStyle=orthogonalEdgeStyle;rounded=0;orthogonalLoop=1;jettySize=auto;html=1;entryX=0;entryY=0.5;entryDx=0;entryDy=0;noEdgeStyle=1;orthogonal=1;" parent="WIyWlLk6GJQsqaUBKTNV-1" source="WIyWlLk6GJQsqaUBKTNV-3" target="opeQJosCikN5GaiZmEWk-12" edge="1"><mxGeometry relative="1" as="geometry"><Array as="points"><mxPoint x="162" y="132.5"/><mxPoint x="238" y="160"/></Array><mxPoint x="420" y="395.0000000000001" as="sourcePoint"/></mxGeometry></mxCell><mxCell id="opeQJosCikN5GaiZmEWk-14" style="edgeStyle=orthogonalEdgeStyle;rounded=0;orthogonalLoop=1;jettySize=auto;html=1;entryX=0;entryY=0.5;entryDx=0;entryDy=0;noEdgeStyle=1;orthogonal=1;" parent="WIyWlLk6GJQsqaUBKTNV-1" source="opeQJosCikN5GaiZmEWk-12" target="opeQJosCikN5GaiZmEWk-8" edge="1"><mxGeometry relative="1" as="geometry"><Array as="points"><mxPoint x="382" y="160"/><mxPoint x="458" y="160"/></Array><mxPoint x="260" y="380" as="sourcePoint"/></mxGeometry></mxCell><mxCell id="opeQJosCikN5GaiZmEWk-11" value="" style="edgeStyle=orthogonalEdgeStyle;rounded=0;orthogonalLoop=1;jettySize=auto;html=1;noEdgeStyle=1;orthogonal=1;" parent="WIyWlLk6GJQsqaUBKTNV-1" source="opeQJosCikN5GaiZmEWk-4" target="opeQJosCikN5GaiZmEWk-10" edge="1"><mxGeometry relative="1" as="geometry"><Array as="points"><mxPoint x="382" y="90"/><mxPoint x="458" y="90"/></Array></mxGeometry></mxCell><mxCell id="opeQJosCikN5GaiZmEWk-4" value="production" style="rounded=1;whiteSpace=wrap;html=1;fontSize=12;glass=0;strokeWidth=1;shadow=0;fillColor=#bac8d3;strokeColor=#23445d;" parent="WIyWlLk6GJQsqaUBKTNV-1" vertex="1"><mxGeometry x="250" y="70" width="120" height="40" as="geometry"/></mxCell><mxCell id="opeQJosCikN5GaiZmEWk-8" value="verify" style="rounded=1;whiteSpace=wrap;html=1;fontSize=12;glass=0;strokeWidth=1;shadow=0;fillColor=#d0cee2;strokeColor=#56517e;" parent="WIyWlLk6GJQsqaUBKTNV-1" vertex="1"><mxGeometry x="470" y="140" width="120" height="40" as="geometry"/></mxCell><mxCell id="opeQJosCikN5GaiZmEWk-10" value="development" style="rounded=1;whiteSpace=wrap;html=1;fontSize=12;glass=0;strokeWidth=1;shadow=0;fillColor=#D0CEE2;strokeColor=#56517e;" parent="WIyWlLk6GJQsqaUBKTNV-1" vertex="1"><mxGeometry x="470" y="70" width="120" height="40" as="geometry"/></mxCell><mxCell id="opeQJosCikN5GaiZmEWk-12" value="test" style="rounded=1;whiteSpace=wrap;html=1;fontSize=12;glass=0;strokeWidth=1;shadow=0;fillColor=#d0cee2;strokeColor=#56517e;" parent="WIyWlLk6GJQsqaUBKTNV-1" vertex="1"><mxGeometry x="250" y="140" width="120" height="40" as="geometry"/></mxCell><mxCell id="0" value="&lt;h1&gt;Docker stages&lt;/h1&gt;" style="text;html=1;strokeColor=none;fillColor=none;spacing=5;spacingTop=-20;whiteSpace=wrap;overflow=hidden;rounded=0;" parent="WIyWlLk6GJQsqaUBKTNV-1" vertex="1"><mxGeometry x="20" y="30" width="180" height="40" as="geometry"/></mxCell><mxCell id="7" value="&lt;h1&gt;&lt;font color=&quot;#bac8d3&quot;&gt;Build&lt;/font&gt;&lt;/h1&gt;&lt;p&gt;&lt;b&gt;Compiles code and builds jar using JDK&lt;/b&gt;. Resolves dependencies, sets workdir, copies Maven files and builds the app.&lt;/p&gt;" style="text;html=1;strokeColor=none;fillColor=none;spacing=5;spacingTop=-20;whiteSpace=wrap;overflow=hidden;rounded=0;fontSize=9;" parent="WIyWlLk6GJQsqaUBKTNV-1" vertex="1"><mxGeometry x="20" y="220" width="190" height="70" as="geometry"/></mxCell><mxCell id="8" value="&lt;h1&gt;&lt;font color=&quot;#bac8d3&quot;&gt;Production&lt;/font&gt;&lt;/h1&gt;&lt;p&gt;&lt;b&gt;Creates a production image of the app using JRE.&amp;nbsp;&lt;/b&gt;Sets workdir, copies built jar and sets service name.&lt;/p&gt;" style="text;html=1;strokeColor=none;fillColor=none;spacing=5;spacingTop=-20;whiteSpace=wrap;overflow=hidden;rounded=0;fontSize=9;" parent="WIyWlLk6GJQsqaUBKTNV-1" vertex="1"><mxGeometry x="240" y="220" width="190" height="70" as="geometry"/></mxCell><mxCell id="16" value="&lt;h1&gt;&lt;font color=&quot;#d0cee2&quot;&gt;Development&lt;/font&gt;&lt;/h1&gt;&lt;p&gt;&lt;b&gt;Run production application.&lt;br&gt;&lt;/b&gt;Sets entrypoint to run jar with debug options when container is launched&lt;/p&gt;" style="text;html=1;strokeColor=none;fillColor=none;spacing=5;spacingTop=-20;whiteSpace=wrap;overflow=hidden;rounded=0;fontSize=9;" parent="WIyWlLk6GJQsqaUBKTNV-1" vertex="1"><mxGeometry x="460" y="220" width="190" height="70" as="geometry"/></mxCell><mxCell id="17" value="&lt;h1&gt;&lt;font color=&quot;#d0cee2&quot;&gt;Test&lt;/font&gt;&lt;/h1&gt;&lt;p&gt;&lt;b&gt;Runs tests.&lt;br&gt;&lt;/b&gt;Copies test files, Maven repo, then runs tests when container is launched.&lt;/p&gt;" style="text;html=1;strokeColor=none;fillColor=none;spacing=5;spacingTop=-20;whiteSpace=wrap;overflow=hidden;rounded=0;fontSize=9;" parent="WIyWlLk6GJQsqaUBKTNV-1" vertex="1"><mxGeometry x="240" y="310" width="190" height="80" as="geometry"/></mxCell><mxCell id="18" value="&lt;h1&gt;&lt;font color=&quot;#d0cee2&quot;&gt;Verify&lt;/font&gt;&lt;/h1&gt;&lt;p&gt;&lt;b&gt;Verifies test coverage.&lt;br&gt;&lt;/b&gt;Copies Maven repo, then runs tests with verification when container is launched.&lt;/p&gt;" style="text;html=1;strokeColor=none;fillColor=none;spacing=5;spacingTop=-20;whiteSpace=wrap;overflow=hidden;rounded=0;fontSize=9;" parent="WIyWlLk6GJQsqaUBKTNV-1" vertex="1"><mxGeometry x="460" y="310" width="190" height="70" as="geometry"/></mxCell><mxCell id="24" value="&lt;font color=&quot;#bac8d3&quot;&gt;&lt;b&gt;Grey&lt;/b&gt;&lt;/font&gt;&lt;span style=&quot;color: rgb(0, 0, 0);&quot;&gt;&amp;nbsp;are used to prepare the final images&lt;br&gt;&lt;/span&gt;&lt;font color=&quot;#d0cee2&quot;&gt;&lt;b&gt;Purple&lt;/b&gt;&lt;/font&gt;&lt;span style=&quot;color: rgb(0, 0, 0);&quot;&gt;&amp;nbsp;&lt;/span&gt;&lt;font color=&quot;#000000&quot;&gt;are final images that will run as a container&lt;/font&gt;" style="shape=note2;boundedLbl=1;whiteSpace=wrap;html=1;size=25;verticalAlign=top;align=left;fontSize=9;fontColor=#D0CEE2;spacingLeft=5;" vertex="1" parent="WIyWlLk6GJQsqaUBKTNV-1"><mxGeometry x="30" y="414" width="220" height="60" as="geometry"/></mxCell></root></mxGraphModel></diagram></mxfile>